<?xml version="1.0" encoding="UTF-8"?>
<svg width="32" height="32" viewBox="0 0 32 32" fill="none" xmlns="http://www.w3.org/2000/svg">
  <!-- Background gradient -->
  <defs>
    <linearGradient id="logoGradient" x1="0%" y1="0%" x2="100%" y2="100%">
      <stop offset="0%" stop-color="#4F46E5" />
      <stop offset="100%" stop-color="#06B6D4" />
    </linearGradient>
  </defs>
  
  <!-- "B" stylized as a price tag -->
  <path d="M24 6C24 3.79086 22.2091 2 20 2H12C9.79086 2 8 3.79086 8 6V26C8 28.2091 9.79086 30 12 30H20C22.2091 30 24 28.2091 24 26V20C24 17.7909 22.2091 16 20 16H16V14H20C22.2091 14 24 12.2091 24 10V6Z" fill="url(#logoGradient)"/>
  <path d="M16 8H14V12H16C17.1046 12 18 11.1046 18 10V10C18 8.89543 17.1046 8 16 8Z" fill="white"/>
  <path d="M16 20H14V24H16C17.1046 24 18 23.1046 18 22V22C18 20.8954 17.1046 20 16 20Z" fill="white"/>
  
  <!-- Deal icon -->
  <circle cx="26" cy="16" r="4" fill="url(#logoGradient)"/>
  <path d="M24 14L28 18" stroke="white" stroke-width="1.5" stroke-linecap="round"/>
  <path d="M24 18L28 14" stroke="white" stroke-width="1.5" stroke-linecap="round"/>
  
  <!-- Sparkle effects -->
  <circle cx="6" cy="8" r="1" fill="white"/>
  <circle cx="6" cy="24" r="1" fill="white"/>
  <circle cx="26" cy="6" r="1" fill="white"/>
  <circle cx="26" cy="26" r="1" fill="white"/>
</svg>
